<svg id="Layer_1" data-name="Layer 1" xmlns="http://www.w3.org/2000/svg" xmlns:xlink="http://www.w3.org/1999/xlink" viewBox="0 0 392 131.23"><defs><style>.cls-1{fill:#7a6e66;}.cls-2{fill:url(#radial-gradient);}</style><radialGradient id="radial-gradient" cx="397.73" cy="468.75" r="103.2" gradientUnits="userSpaceOnUse"><stop offset="0" stop-color="#f7a120"/><stop offset="0.33" stop-color="#e16b24"/><stop offset="0.63" stop-color="#d04127"/><stop offset="0.86" stop-color="#c52729"/><stop offset="1" stop-color="#c11d2a"/></radialGradient></defs><title>GSK logo vector</title><path class="cls-1" d="M648.18,519.81a1.91,1.91,0,0,0-1.84-2,2,2,0,0,0-2,2,1.91,1.91,0,0,0,2,1.83,1.8,1.8,0,0,0,1.84-1.83" transform="translate(-295 -434.39)"/><path class="cls-1" d="M579.69,519.81a2,2,0,0,0-2-2,1.9,1.9,0,0,0-1.83,2,1.79,1.79,0,0,0,1.83,1.83,1.91,1.91,0,0,0,2-1.83" transform="translate(-295 -434.39)"/><path class="cls-1" d="M683.46,532.94h-8.54c.26-2.23,1.18-5,4.47-5,2.89,0,4.07,2.23,4.07,5m3.49,2.5a7.18,7.18,0,0,0,0-1c0-5.31-1.86-9.17-7.61-9.17-5,0-8,3.81-8,9.07,0,5.92,2.63,9.72,8.94,9.72a10.28,10.28,0,0,0,5.26-1.18v-3.28a8.94,8.94,0,0,1-5.13,1.84c-3.15,0-5.52-2.51-5.52-6Z" transform="translate(-295 -434.39)"/><path class="cls-1" d="M668.22,543.72V533.07c0-4.86-2-7.75-6.57-7.75a5.92,5.92,0,0,0-5.65,3.29h-.13v-2.89h-3.16v18H656v-8.28c0-4.47,1.44-7.62,5.26-7.49,2.89.13,3.67,2.23,3.67,6.44v9.33h3.29" transform="translate(-295 -434.39)"/><rect class="cls-1" x="349.63" y="91.33" width="3.29" height="18.01"/><path class="cls-1" d="M641.38,543.58c-1.32-.39-1.58-1.3-1.58-2.49V518.75h-3.42v22.74a2.3,2.3,0,0,0,2.63,2.62,4.75,4.75,0,0,0,2.37-.53" transform="translate(-295 -434.39)"/><polyline class="cls-1" points="339.29 109.34 328.95 96.44 338.4 84.77 334.36 84.77 325.68 95.68 325.68 84.77 322.23 84.77 322.23 109.34 325.68 109.34 325.68 97.38 334.75 109.34 339.29 109.34"/><path class="cls-1" d="M612.29,543.72V533.07c0-4.86-2-7.75-6.57-7.75a6,6,0,0,0-5.52,3h-.13v-9.6h-3.28v25h3.28v-8.28c0-4.47,1.45-7.62,5.26-7.49,2.89.13,3.68,2.23,3.68,6.44v9.33h3.28" transform="translate(-295 -434.39)"/><path class="cls-1" d="M593.7,543.58v-2.75a4.5,4.5,0,0,1-2.23.66c-1.58,0-2.76-1.18-2.76-3.29v-9.85h4.47v-2.63h-4.47v-5.26l-3.29,1v4.21h-3.16v2.63h3.16v10.51c0,3.68,2.11,5.25,5.52,5.25a7.78,7.78,0,0,0,2.76-.53" transform="translate(-295 -434.39)"/><rect class="cls-1" x="281.01" y="91.33" width="3.28" height="18.01"/><path class="cls-1" d="M571.55,543.72V532.15c0-3.94-1.71-6.83-6.3-6.83a6.39,6.39,0,0,0-5.52,3.42,5.32,5.32,0,0,0-5.13-3.42,6.18,6.18,0,0,0-5.78,3v-2.63h-3.16v18H549v-9.07c0-3.41,1.45-6.7,4.73-6.7,2.76,0,3.29,2.76,3.29,5v10.78h3.28v-9.07c0-3.41,1.32-6.7,4.73-6.7,2.63,0,3.16,2.76,3.16,5v10.78h3.41" transform="translate(-295 -434.39)"/><path class="cls-1" d="M542.81,536.88c0-5-4.21-6.44-7.88-8.14a8,8,0,0,1-1.85-.92,3.4,3.4,0,0,1-1.84-2.9c0-2.62,2.63-3.41,4.87-3.41a15.24,15.24,0,0,1,5,1l.53-2.89a18,18,0,0,0-5.66-1c-5,0-8.67,2.36-8.67,6.7,0,4.73,4.6,5.92,7.89,7.49,1.84.79,3.94,2,3.94,4.21,0,3.15-3.29,4.2-5.39,4.2A17.52,17.52,0,0,1,528,540l-.26,3.15a21,21,0,0,0,5.45.92c5.38,0,9.66-2.1,9.66-7.23" transform="translate(-295 -434.39)"/><polyline class="cls-1" points="211.43 109.34 205.64 99.87 210.9 91.33 207.09 91.33 203.68 97.77 200.26 91.33 196.18 91.33 201.44 99.87 195.53 109.34 199.46 109.34 203.41 102.23 207.35 109.34 211.43 109.34"/><path class="cls-1" d="M470.88,543.58c-1.32-.39-1.58-1.3-1.58-2.49V518.75h-3.42v22.74a2.3,2.3,0,0,0,2.63,2.62,4.41,4.41,0,0,0,2.37-.53" transform="translate(-295 -434.39)"/><path class="cls-1" d="M461.81,543.06V532.33h-3.55v8.23a11.78,11.78,0,0,1-3.94.4,9.19,9.19,0,0,1-9.33-9.59c0-5.53,3.81-9.59,9.46-9.59a12.93,12.93,0,0,1,6.83,1.7l.27-3.55a17.44,17.44,0,0,0-7.23-1.31c-7.49,0-13,5.12-13,12.62,0,7.88,5.13,12.87,12.88,12.87a25.74,25.74,0,0,0,7.62-1.05" transform="translate(-295 -434.39)"/><path class="cls-1" d="M524.75,534.65c0-5.39-3.15-9.33-8.54-9.33s-8.67,3.94-8.67,9.33,3.16,9.46,8.67,9.46,8.54-4.2,8.54-9.46m-3.54,0c0,3.28-1.19,6.84-5,6.84s-5.12-3.56-5.12-6.84,1.45-6.7,5.12-6.7C519.63,528,521.21,531.24,521.21,534.65Z" transform="translate(-295 -434.39)"/><path class="cls-1" d="M488.06,543.72a20,20,0,0,1-.13-3.55v-7.49c0-4.86-1.84-7.36-7-7.36a10.29,10.29,0,0,0-5.78,1.71l.26,2.76a8,8,0,0,1,5-1.84c3.28,0,4.07,1.57,4.07,4.73a30,30,0,0,0-3.42-.13c-3.41,0-7.88,1.44-7.88,5.91,0,3.94,2.5,5.65,6.3,5.65a6,6,0,0,0,5.26-2.75h.14v2.36h3.15m-3.55-7c0,2.63-1.44,4.74-4.73,4.74a3,3,0,0,1-3-3c0-3.15,4.07-3.41,5.78-3.41.79,0,1.31.13,2,.13Z" transform="translate(-295 -434.39)"/><path class="cls-2" d="M396.12,554.44c-9.47,7-19.6,11.17-31.43,11.17-24.33,0-45.37-17.48-57.2-37.73a28.22,28.22,0,0,0,8.81,4.6,47.47,47.47,0,0,0,12.89,2c13.93,0,19.72-5.26,20-12.49.14-6.31-4.6-9.86-13.41-10.39l-9.07-.52c-4.21-.27-5.13-1.58-5.13-3.3a4.05,4.05,0,0,1,1.63-3.08,6.31,6.31,0,0,1,2.79-1.29,24.9,24.9,0,0,0,2.95.17c10.25,0,16-6.18,16-13.54a13.55,13.55,0,0,0-3.28-8.81,62.41,62.41,0,0,1,7.76.52v-5.25a30.85,30.85,0,0,1-7.76.78,21.32,21.32,0,0,1-5.92-.92,26.5,26.5,0,0,0-7.08-1.18c-10.3,0-16.67,6.32-16.67,14.49a13.56,13.56,0,0,0,8.89,12.59c-3.94,1.85-6,4.48-6,7.51,0,3.41,2.76,7,8.16,7.48,3.41.27,5.12.4,10,.66s6.44.4,8.28,1.06a4.5,4.5,0,0,1,2.9,3.94c0,3.15-2.24,4.86-4.47,5.79a32.44,32.44,0,0,1-9.74,1.18c-14.19,0-24.58-7.36-30.37-20.25a53.57,53.57,0,0,1-4.6-22.88,38.75,38.75,0,0,1,3.55-16c15-31,61.67-36.29,91.91-36.29a126,126,0,0,1,21,1.31c20,3.16,35.9,12.89,35.9,34.85,0,29.32-28.67,67.06-51.28,83.89m-67-55.1c-6.45,0-10-4.74-10-10.79,0-5.39,3.32-9.06,8.85-9.06,6.3,0,9.69,4.7,9.69,10.61C337.73,495.5,334.81,499.34,329.16,499.34Zm96.15,16.17c-2.24,0-5.92-1.57-10.78-6.83-6.32-7-13-14.86-13-14.86l11.18-10.52c6.58-6.18,8.42-6.57,8.95-6.7h-10.4a38.55,38.55,0,0,1-4.46,4.86l-12,11.18V457.4l-9.07,2.36c1.18,1.58,1.57,4.21,1.57,10.13v36.43c0,7.35-.39,8.15-1.18,10.25h9.73c-.66-1.71-1.05-2.9-1.05-10.25V495.79l12.1,14.47c4.2,5,7.63,7.23,11.7,7.23a13.73,13.73,0,0,0,8-2.24A4.69,4.69,0,0,1,425.31,515.51Zm-55.23-21.3c-5.26-2.62-10.26-5-10.26-9.2,0-3.55,3.81-5.13,7.76-5.13a17.73,17.73,0,0,1,11.05,3.95v-5.92a22.46,22.46,0,0,0-10.92-2.76c-7.1,0-15,3.55-15,11.7,0,6.71,5.92,9.6,11.44,12.23,5,2.37,9.6,4.47,9.6,8.81s-4.6,5.26-8.28,5.26c-3.42,0-8.81-1.45-13.15-3.81v6A33,33,0,0,0,365.21,518c7.37,0,16.18-3,16.18-11.84C381.39,500.13,375.6,497,370.08,494.21Z" transform="translate(-295 -434.39)"/></svg>