<?xml version="1.0" encoding="utf-8"?>
<!-- Generator: Adobe Illustrator 19.0.0, SVG Export Plug-In . SVG Version: 6.00 Build 0)  -->
<svg version="1.1" id="layer" xmlns="http://www.w3.org/2000/svg" xmlns:xlink="http://www.w3.org/1999/xlink" x="0px" y="0px"
	 viewBox="-153 -46 652 652" style="enable-background:new -153 -46 652 652;" xml:space="preserve">
<style type="text/css">
	.st0{fill:#002D72;}
	.st1{fill:#FFE500;}
</style>
<rect x="-131.6" y="143.5" class="st0" width="600" height="262.3"/>
<path class="st1" d="M-32.1,325.5l21-63.2v63.2h31.3V225h-42.3l-20.4,50.3L-62.8,225h-42.3v100.6h31.3v-63.2l21.1,63.2H-32.1z
	 M304.5,286.5c9.8-0.8,19.5-7.5,19.5-18.4v-22.6v-2.2c-1.1-11.3-9.6-17.5-19.7-18.3h-80.6l0,100.6h31.3v-39.1h12.5l20.4,39.1h36
	l-24.2-39.1H304.5z M295.8,260.4c0,2.2-0.5,4.1-4.4,4.1h-36.3v-19.7h36.3c4.4,0,4.4,2.9,4.4,4.7V260.4z M114.2,244.8V225H32.7v100.6
	l82.5,0l0-19.8H64.1l0-21.5h50v-19.7h-50v-19.7H114.2z M153.3,244.8h-29.8V225h90.8v19.8h-29.8v80.8h-31.3V244.8z M422.6,225h-66.5
	c-10,0.8-18.4,5.9-19.6,17.3v65.1c1.1,11.4,9.6,17.4,19.6,18.2h66.5c10-0.8,18.4-6.8,19.6-18.2v-65.1
	C441.1,230.9,432.6,225.8,422.6,225L422.6,225z M410.9,301.3c-0.1,1.1-0.6,4.1-4.4,4.5h-33.9c-3.9-0.4-4.6-3.4-4.7-4.5v-52.5
	c0.1-1.1,0.7-3.5,4.5-3.9h34.1c3.9,0.4,4.3,2.8,4.4,3.9V301.3z"/>
</svg>
